<?xml version="1.0" standalone="no"?>
<!DOCTYPE svg PUBLIC "-//W3C//DTD SVG 20010904//EN"
 "http://www.w3.org/TR/2001/REC-SVG-20010904/DTD/svg10.dtd">
<svg version="1.0" xmlns="http://www.w3.org/2000/svg"
 width="1024.000000pt" height="1024.000000pt" viewBox="0 0 1024.000000 1024.000000"
 preserveAspectRatio="xMidYMid meet">
<metadata>
Created by potrace 1.14, written by Peter Selinger 2001-2017
</metadata>
<g transform="translate(0.000000,1024.000000) scale(0.100000,-0.100000)"
fill="#000000" stroke="none">
<path d="M8745 8949 c-741 -81 -1602 -353 -2430 -767 -677 -338 -1403 -815
-2005 -1316 -47 -39 -93 -77 -101 -84 -14 -10 -109 -7 -512 19 -484 30 -497
31 -520 13 -13 -11 -398 -347 -856 -749 l-834 -730 74 -8 c499 -53 1015 -229
1497 -510 106 -61 122 -74 117 -92 -12 -41 -17 -452 -7 -568 l11 -118 -33 -62
c-87 -159 -147 -495 -158 -877 l-3 -115 110 3 c380 10 695 64 862 148 l85 42
106 -10 c102 -10 502 -4 567 8 29 5 32 2 77 -73 277 -468 472 -1005 518 -1433
6 -58 14 -123 18 -145 l7 -39 729 834 c401 459 738 845 748 857 19 21 19 26
-12 517 -17 273 -28 502 -23 509 4 6 39 50 78 97 692 827 1253 1752 1630 2685
257 636 442 1367 471 1863 l7 112 -69 -1 c-38 -1 -105 -6 -149 -10z"/>
</g>
</svg>
